<svg id="Group_18" data-name="Group 18" xmlns="http://www.w3.org/2000/svg" width="20.896" height="18.574" viewBox="0 0 20.896 18.574">
  <path id="Path_36" data-name="Path 36" d="M25.787,14.118A2.252,2.252,0,0,0,24.7,13.8H20.947a4.586,4.586,0,0,0,.145-1.161,4.644,4.644,0,1,0-9.287,0A4.585,4.585,0,0,0,11.95,13.8H8.322a2.322,2.322,0,0,0-1.9.993,1.051,1.051,0,0,0-.11.168A2.322,2.322,0,0,0,6,16.126v8.126a2.322,2.322,0,0,0,2.322,2.322H24.574A2.322,2.322,0,0,0,26.9,24.253V16.126a2.322,2.322,0,0,0-.673-1.637A2.757,2.757,0,0,0,25.787,14.118Zm-9.833,3.169h.029a2.234,2.234,0,0,0,.279,0,2.9,2.9,0,1,0,.366,0,2.862,2.862,0,0,0,.319,0h5.12a4.063,4.063,0,0,0,1.347,1.567v2.618a4.063,4.063,0,0,0-1.347,1.619H10.829a4.063,4.063,0,0,0-1.347-1.619V18.854a4.063,4.063,0,0,0,1.347-1.567Zm2.235,2.9a1.741,1.741,0,1,1-1.741-1.741A1.741,1.741,0,0,1,18.189,20.189Zm-5.224-7.546A3.483,3.483,0,1,1,19.733,13.8a4.063,4.063,0,0,1-.2.459,3.6,3.6,0,0,1-.255.4l-.064.087a3.413,3.413,0,0,1-.3.348l-.035.029a3.6,3.6,0,0,1-.325.279l-.087.07a3.39,3.39,0,0,1-.395.238l-.081.041a2.9,2.9,0,0,1-.389.163l-.075.029a3.779,3.779,0,0,1-.459.11H16.03a3.483,3.483,0,0,1-2.02-.917l-.2-.226-.035-.041a1.41,1.41,0,0,1-.139-.186c0-.041-.064-.081-.093-.128l-.1-.174-.1-.186a1.161,1.161,0,0,1-.058-.122,3.047,3.047,0,0,1-.128-.319h0a3.535,3.535,0,0,1-.192-1.114Zm12.77,11.609a1.161,1.161,0,0,1-1.161,1.161H8.322a1.161,1.161,0,0,1-1.161-1.161V16.126a1.161,1.161,0,0,1,.157-.58l.035-.064v.029h0l.041-.052a1.161,1.161,0,0,1,.929-.493h4.063c0,.035.046.07.07.11l.221.331a1.828,1.828,0,0,0,.128.168c.093.11.186.221.284.325l.087.1a1.6,1.6,0,0,0,.151.128h-2.67a.958.958,0,0,0-.865.58A2.949,2.949,0,0,1,8.722,17.96a.94.94,0,0,0-.4.766V21.6a.929.929,0,0,0,.424.772,2.9,2.9,0,0,1,1.068,1.26.958.958,0,0,0,.865.58H22.218a.958.958,0,0,0,.865-.58,2.9,2.9,0,0,1,1.068-1.26.929.929,0,0,0,.424-.772V18.727a.94.94,0,0,0-.424-.778,2.949,2.949,0,0,1-1.068-1.242.958.958,0,0,0-.865-.58H19.542l.2-.18.052-.058a3.761,3.761,0,0,0,.313-.36l.087-.116a3.645,3.645,0,0,0,.261-.447h4.22a1.056,1.056,0,0,1,.517.157,1.393,1.393,0,0,1,.238.186,1.161,1.161,0,0,1,.308.818Z" transform="translate(-6 -8)" fill="#fff"/>
  <path id="Path_41" data-name="Path 41" d="M21.08,15.112h.871v.871a.58.58,0,0,0,1.161,0v-.871h.871a.58.58,0,1,0,0-1.161h-.871V13.08a.58.58,0,0,0-1.161,0v.871H21.08a.58.58,0,1,0,0,1.161Z" transform="translate(-12.083 -10)" fill="#fff"/>
</svg>
