<svg xmlns="http://www.w3.org/2000/svg" xmlns:xlink="http://www.w3.org/1999/xlink" width="36.167" height="36.936" viewBox="0 0 36.167 36.936">
  <defs>
    <linearGradient id="linear-gradient" x1="0.5" x2="0.5" y2="1" gradientUnits="objectBoundingBox">
      <stop offset="0" stop-color="#da187a"/>
      <stop offset="1" stop-color="#d9332d"/>
    </linearGradient>
  </defs>
  <path id="iconfinder_111091_winner_prize_icon" d="M45.458,32.718a4.715,4.715,0,0,0-2.308-.769,6.181,6.181,0,0,0-6.156,6.21c0,4.963,5.287,6.733,8.465,9.18v1.154a9.619,9.619,0,0,0,7.7,9.426V63.5a1.544,1.544,0,0,1-1.539,1.539H47.381a1.924,1.924,0,0,0,0,3.848h15.39a1.924,1.924,0,1,0,0-3.848H58.539A1.544,1.544,0,0,1,57,63.5V57.92a9.619,9.619,0,0,0,7.7-9.426V47.339c3.178-2.447,8.464-4.217,8.464-9.18A6.181,6.181,0,0,0,67,31.949a4.714,4.714,0,0,0-2.308.769Zm6.926,5.387v9.234a1.539,1.539,0,1,1-3.078,0V38.105a1.539,1.539,0,1,1,3.078,0Zm-11.543.054a2.309,2.309,0,1,1,4.617,0v4.733C43.241,41.491,40.84,40.559,40.84,38.159Zm28.472,0c0,2.4-2.4,3.332-4.617,4.733V38.159a2.309,2.309,0,1,1,4.617,0Z" transform="translate(-36.993 -31.949)" fill-rule="evenodd" fill="url(#linear-gradient)"/>
</svg>
