<svg xmlns="http://www.w3.org/2000/svg" width="23.522" height="23.108" viewBox="0 0 23.522 23.108">
  <g id="Layer_2" transform="translate(1.414 1)">
    <g id="Group_92" data-name="Group 92">
      <line id="Line_1" data-name="Line 1" y2="1" transform="translate(10.539 6.615)" fill="none" stroke="#fff" stroke-linecap="round" stroke-linejoin="round" stroke-miterlimit="10" stroke-width="2"/>
      <line id="Line_2" data-name="Line 2" y2="1" transform="translate(10.539 13.615)" fill="none" stroke="#fff" stroke-linecap="round" stroke-linejoin="round" stroke-miterlimit="10" stroke-width="2"/>
      <path id="Path_50" data-name="Path 50" d="M13.754,18.031h2.262a1.508,1.508,0,1,0,0-3.015H14.508a1.508,1.508,0,1,1,0-3.015h2.262" transform="translate(-4.708 -4.462)" fill="none" stroke="#fff" stroke-linecap="round" stroke-linejoin="round" stroke-miterlimit="10" stroke-width="2"/>
      <path id="Path_51" data-name="Path 51" d="M13.538,6A7.538,7.538,0,1,1,6,13.538V11.277" transform="translate(-2.985 -2.985)" fill="none" stroke="#fff" stroke-linecap="round" stroke-linejoin="round" stroke-miterlimit="10" stroke-width="2"/>
      <path id="Path_52" data-name="Path 52" d="M8.031,16.015,5.015,13,2,16.015" transform="translate(-2 -4.708)" fill="none" stroke="#fff" stroke-linecap="round" stroke-linejoin="round" stroke-miterlimit="10" stroke-width="2"/>
      <path id="Path_53" data-name="Path 53" d="M16,2a10.554,10.554,0,1,1,0,21.108" transform="translate(-5.446 -2)" fill="none" stroke="#fff" stroke-linecap="round" stroke-linejoin="round" stroke-miterlimit="10" stroke-width="2"/>
    </g>
  </g>
</svg>
