<svg xmlns="http://www.w3.org/2000/svg" width="22.097" height="19.465" viewBox="0 0 22.097 19.465">
  <g id="iconfinder_430122_couch_seat_sofa_icon" transform="translate(0.25 0.25)">
    <path id="Path_22" data-name="Path 22" d="M47.772,29.176a.432.432,0,0,1-.432-.432V22.432a2.2,2.2,0,0,0-2.2-2.2H39.258a2.2,2.2,0,0,0-2.2,2.2v6.312a.432.432,0,1,1-.863,0V22.432a3.068,3.068,0,0,1,3.065-3.065h5.881A3.069,3.069,0,0,1,48.2,22.432v6.312A.432.432,0,0,1,47.772,29.176Z" transform="translate(-31.4 -19.367)" fill="#fff" stroke="#fff" stroke-width="0.5"/>
    <path id="Path_23" data-name="Path 23" d="M48.2,79.088H36.193V73.016H48.2Zm-11.148-.863H47.34V73.879H37.056Z" transform="translate(-31.4 -61.437)" fill="#fff" stroke="#fff" stroke-width="0.5"/>
    <path id="Path_24" data-name="Path 24" d="M19.64,54.83h-3.26V47.705a2.828,2.828,0,1,1,3.26-2.8Zm-2.4-.863h1.533V44.91a1.965,1.965,0,1,0-1.965,1.965h.432v7.092Z" transform="translate(-13.984 -37.179)" fill="#fff" stroke="#fff" stroke-width="0.5"/>
    <path id="Path_25" data-name="Path 25" d="M91.1,54.83H87.843V44.91a2.828,2.828,0,1,1,3.259,2.8V54.83Zm-2.4-.863h1.533V46.875h.432a1.965,1.965,0,1,0-1.964-1.965Z" transform="translate(-71.902 -37.179)" fill="#fff" stroke="#fff" stroke-width="0.5"/>
    <path id="Path_26" data-name="Path 26" d="M36.624,100.648a.432.432,0,0,1-.432-.432v-.951a.432.432,0,0,1,.863,0v.951A.432.432,0,0,1,36.624,100.648Z" transform="translate(-31.399 -81.683)" fill="#fff" stroke="#fff" stroke-width="0.5"/>
    <path id="Path_27" data-name="Path 27" d="M88.275,100.648a.432.432,0,0,1-.432-.432v-.951a.432.432,0,0,1,.863,0v.951A.432.432,0,0,1,88.275,100.648Z" transform="translate(-71.902 -81.683)" fill="#fff" stroke="#fff" stroke-width="0.5"/>
  </g>
</svg>
