<svg xmlns="http://www.w3.org/2000/svg" width="16.354" height="21.882" viewBox="0 0 16.354 21.882">
  <path id="Path_130" data-name="Path 130" d="M22.309,9.294H21.287V7.21a5.111,5.111,0,1,0-10.221,0V9.294H10.044A2.064,2.064,0,0,0,8,11.378V21.8a2.064,2.064,0,0,0,2.044,2.084H22.309A2.064,2.064,0,0,0,24.354,21.8V11.378A2.064,2.064,0,0,0,22.309,9.294Zm-6.133,9.378a2.084,2.084,0,1,1,2.044-2.084A2.064,2.064,0,0,1,16.177,18.672Zm3.169-9.378H13.008V7.21a3.169,3.169,0,1,1,6.337,0Z" transform="translate(-8 -2)" fill="#fff"/>
</svg>
