<svg xmlns="http://www.w3.org/2000/svg" width="19.021" height="23.766" viewBox="0 0 19.021 23.766">
  <g id="Group_19" data-name="Group 19" transform="translate(0 0)">
    <g id="iconfinder_1814103_click_finger_touch_icon" transform="translate(0 0)">
      <g id="Icon-Pointer">
        <path id="Fill-173" d="M-202.647-446.234h-9.536a.78.78,0,0,1-.791-.791c0-1.235-.593-1.927-1.482-3.014a21.6,21.6,0,0,1-1.581-2.125,33.748,33.748,0,0,1-3.113-6.275,2.339,2.339,0,0,1,.2-2.125,1.911,1.911,0,0,1,1.63-.741,4.112,4.112,0,0,1,2.767,1.828v-8.153A2.372,2.372,0,0,1-212.183-470a2.4,2.4,0,0,1,2.372,2.372v3.31a2.048,2.048,0,0,1,.791-.148A2.481,2.481,0,0,1-207-463.379a2.347,2.347,0,0,1,1.186-.3,2.342,2.342,0,0,1,2.273,1.729,2.394,2.394,0,0,1,.889-.148,2.372,2.372,0,0,1,2.372,2.372v2.372a20.883,20.883,0,0,1-.791,5.287,19.9,19.9,0,0,0-.791,4.99.823.823,0,0,1-.791.84Zm-8.746-1.581h8a24.689,24.689,0,0,1,.791-4.6,19.527,19.527,0,0,0,.741-4.941v-2.52a.78.78,0,0,0-.791-.791.78.78,0,0,0-.791.791v.939a.781.781,0,0,1-.791.791.781.781,0,0,1-.791-.791v-2.52a.78.78,0,0,0-.791-.791.78.78,0,0,0-.791.791v1.729a.78.78,0,0,1-.791.791.78.78,0,0,1-.791-.791v-2.52a.78.78,0,0,0-.791-.791.78.78,0,0,0-.791.791v1.729a.78.78,0,0,1-.791.791.78.78,0,0,1-.791-.791v-7.313a.781.781,0,0,0-.791-.791.781.781,0,0,0-.791.791v12.056a.78.78,0,0,1-.791.791.78.78,0,0,1-.791-.791v-.642c-.692-1.828-2.273-3.409-2.767-3.409-.2,0-.3.049-.346.2a1.031,1.031,0,0,0,0,.692A36.375,36.375,0,0,0-214.6-453a17.141,17.141,0,0,0,1.482,1.976,7.022,7.022,0,0,1,1.729,3.212Z" transform="translate(219.297 470)" fill="#fff"/>
      </g>
    </g>
  </g>
</svg>
