<svg xmlns="http://www.w3.org/2000/svg" width="21.167" height="15.875" viewBox="0 0 21.167 15.875">
  <g id="icons" transform="translate(0 -3)">
    <path id="email" d="M17.639,3H3.528A3.538,3.538,0,0,0,0,6.528v8.819a3.538,3.538,0,0,0,3.528,3.528H17.639a3.538,3.538,0,0,0,3.528-3.528V6.528A3.538,3.538,0,0,0,17.639,3ZM19.05,8.115,12.083,12.79a2.973,2.973,0,0,1-1.5.441,2.973,2.973,0,0,1-1.5-.441L2.117,8.115A.933.933,0,0,1,1.94,6.881.933.933,0,0,1,3.175,6.7l6.967,4.674a.955.955,0,0,0,.97,0L18.08,6.7a.867.867,0,0,1,1.235.265A.962.962,0,0,1,19.05,8.115Z" fill="#9783a0"/>
  </g>
</svg>
