<svg xmlns="http://www.w3.org/2000/svg" width="216.034" height="50.094" viewBox="0 0 216.034 50.094">
  <g id="Group_53" data-name="Group 53" transform="translate(-127 -3762)">
    <g id="Group_4" data-name="Group 4" transform="translate(127 3762)">
      <path id="Path_8" data-name="Path 8" d="M345.094,453.758a33.727,33.727,0,0,1-11.9.366,33.352,33.352,0,0,1-10.787-6.353l5.955-3.641A11,11,0,0,1,345.094,453.758Z" transform="translate(-295.376 -442.495)" fill="#fff"/>
      <path id="Path_9" data-name="Path 9" d="M306.057,454.486a33.36,33.36,0,0,1-18.6-5.652c-1.594-1.07-3.194-2.131-4.832-3.132l-2.574-1.572a10.993,10.993,0,0,0-16.694,10.237c1.481,18.668,7.045,29.764,12.319,36.222a5.432,5.432,0,0,0,9.632-3.446V474.263h-6.032a1.236,1.236,0,0,1-1.236-1.236v-9.3a1.236,1.236,0,0,1,1.236-1.236h17.8a1.236,1.236,0,0,1,1.236,1.236v9.3a1.236,1.236,0,0,1-1.236,1.236h-6.032v12.884a5.433,5.433,0,0,0,9.65,3.424c5.108-6.261,10.482-16.874,12.156-34.5q.08-.84.148-1.7c.016-.205.027-.407.033-.609A33.587,33.587,0,0,1,306.057,454.486ZM277.2,474.016a1.236,1.236,0,1,1-2.472,0V462.743a1.236,1.236,0,1,1,2.472,0Zm24.426,0a1.236,1.236,0,1,1-2.472,0V462.743a1.236,1.236,0,1,1,2.472,0Z" transform="translate(-263.318 -442.495)" fill="#fff"/>
    </g>
    <g id="Group_6" data-name="Group 6" transform="translate(180.75 3767.419)">
      <g id="Group_5" data-name="Group 5" transform="translate(0 0)">
        <path id="Path_10" data-name="Path 10" d="M456.973,478.314a4.866,4.866,0,0,0-.339-1.537c-.165-.38-.375-.819-.631-1.327a3.209,3.209,0,0,0-1.052-1.222,12.97,12.97,0,0,0-1.556-.9,7.065,7.065,0,0,0-2.169-.631,19.589,19.589,0,0,0-2.882-.192l-.38,3.2q4.5,0,4.5,2.695a9.2,9.2,0,0,0-2.228-.865,15.616,15.616,0,0,0-3.2-.444,2.375,2.375,0,0,0-.462-.041,5.657,5.657,0,0,0-2.777.673q-2.91,1.434-2.905,5.6v4.086q.336,6.1,7.242,6.863a19.736,19.736,0,0,0,1.976.082q2.608,0,6.991-.421V481.389c0-.673-.009-1.194-.023-1.56S457.028,478.959,456.973,478.314Zm-4.506,11.534a13.283,13.283,0,0,1-2.439.256q-4.467,0-4.465-3.875v-2.315a1.9,1.9,0,0,1,.842-1.771,2.673,2.673,0,0,1,1.35-.334,5.531,5.531,0,0,1,.673.041,12.7,12.7,0,0,1,2.3.613,8.131,8.131,0,0,1,1.743.86Z" transform="translate(-413.401 -464.194)" fill="#fff"/>
        <path id="Path_11" data-name="Path 11" d="M710.566,467.648l1.011-4.337h-4v-8.377h-4.717v23.909q0,5.984,6.4,6.108l1.391-3.706a4.387,4.387,0,0,1-2.274-.485,2.053,2.053,0,0,1-.8-1.917v-11.2Z" transform="translate(-555.519 -454.662)" fill="#fff"/>
        <path id="Path_12" data-name="Path 12" d="M623.838,472.414a8.124,8.124,0,0,0-5.618,1.894,6.738,6.738,0,0,0-2.127,5.307v8.629a5.7,5.7,0,0,0,1.935,4.717,7.791,7.791,0,0,0,4.886,1.427h.334a13.7,13.7,0,0,0,6.949-1.976l-1.684-4a12.741,12.741,0,0,1-5.22,1.684,4.264,4.264,0,0,1-.59-.041,2.152,2.152,0,0,1-1.935-2.443v-1.18l10.481-.544v-6.4a6.853,6.853,0,0,0-1.958-5.2A7.568,7.568,0,0,0,623.838,472.414Zm2.736,9.388-5.806.38v-2.525a2.807,2.807,0,0,1,.714-1.853,2.875,2.875,0,0,1,2.315-.842,2.978,2.978,0,0,1,1.981.673,2.392,2.392,0,0,1,.8,1.935Z" transform="translate(-508.446 -464.145)" fill="#fff"/>
        <path id="Path_13" data-name="Path 13" d="M670.651,473.215a8.6,8.6,0,0,0-3.665-.8,11.821,11.821,0,0,0-3.66.631l-.549-.252h-4.085v21.091h4.593V477.634a6.619,6.619,0,0,1,2.859-.759,3.627,3.627,0,0,1,1.642.38,3.442,3.442,0,0,1,1.812,3.367v13.263h4.63V479.318Q674.229,474.857,670.651,473.215Z" transform="translate(-531.556 -464.145)" fill="#fff"/>
        <path id="Path_14" data-name="Path 14" d="M584.435,463.434a7.83,7.83,0,0,0-1.853-.421,7.053,7.053,0,0,0-1.135-.082c-.48,0-1,.027-1.56.082a8.908,8.908,0,0,0-2.818.759q-3.582,1.64-3.578,6.062v7.956q0,4.172,3.28,5.851a12.09,12.09,0,0,0,5.559,1.263,48.334,48.334,0,0,0,6.693-.5V454.934h-4.589Zm0,16.882a9.058,9.058,0,0,1-2.187.3,6.334,6.334,0,0,1-2.233-.38c-1.29-.476-1.935-1.194-1.935-2.146v-6.57a4.47,4.47,0,0,1,.608-2.461,2.845,2.845,0,0,1,1.578-1.244,5.844,5.844,0,0,1,1.391-.165,5.532,5.532,0,0,1,.673.041,6.18,6.18,0,0,1,2.1.631Z" transform="translate(-485.336 -454.662)" fill="#fff"/>
        <path id="Path_15" data-name="Path 15" d="M392.043,474.424l-6.611-19.49H380.8V484.4h4.63V468.87l4.845,15.532h3.536l4.923-15.578V484.4h4.63V454.934h-4.63Z" transform="translate(-380.802 -454.662)" fill="#fff"/>
        <path id="Path_16" data-name="Path 16" d="M501.841,477.453v-4.209H487.188v4.378h8.423l-8.8,12.334v4.378h15.45v-4.378H493Z" transform="translate(-438.312 -464.595)" fill="#fff"/>
        <path id="Path_17" data-name="Path 17" d="M543.653,478.314a5.007,5.007,0,0,0-.334-1.537c-.169-.38-.38-.819-.631-1.327a3.248,3.248,0,0,0-1.052-1.222,13.423,13.423,0,0,0-1.56-.9,7.065,7.065,0,0,0-2.169-.631,19.589,19.589,0,0,0-2.882-.192l-.38,3.2q4.5,0,4.506,2.695a9.322,9.322,0,0,0-2.233-.865,15.616,15.616,0,0,0-3.2-.444,2.458,2.458,0,0,0-.467-.041,5.657,5.657,0,0,0-2.777.673q-2.9,1.434-2.905,5.6v4.086q.336,6.1,7.242,6.863a19.737,19.737,0,0,0,1.976.082q2.615,0,6.991-.421V481.389c0-.673-.009-1.194-.023-1.56S543.708,478.959,543.653,478.314Zm-4.5,11.534a13.37,13.37,0,0,1-2.443.256q-4.461,0-4.465-3.875v-2.315a1.9,1.9,0,0,1,.846-1.771,2.655,2.655,0,0,1,1.345-.334,5.53,5.53,0,0,1,.672.041,12.7,12.7,0,0,1,2.3.613,8.288,8.288,0,0,1,1.748.86Z" transform="translate(-460.424 -464.194)" fill="#fff"/>
        <path id="Path_18" data-name="Path 18" d="M728.214,459.378a1.008,1.008,0,0,1-.6.179.915.915,0,0,1-.763-.335,1.472,1.472,0,0,1-.011-1.668.908.908,0,0,1,.766-.328,1,1,0,0,1,.577.171.709.709,0,0,1,.309.425h.566a1.311,1.311,0,0,0-.5-.834,1.5,1.5,0,0,0-.953-.32,1.431,1.431,0,0,0-1.154.5,1.851,1.851,0,0,0-.424,1.236,1.769,1.769,0,0,0,.428,1.217,1.476,1.476,0,0,0,1.165.484,1.431,1.431,0,0,0,.923-.324,1.48,1.48,0,0,0,.521-.86H728.5A.624.624,0,0,1,728.214,459.378Z" transform="translate(-568.089 -455.603)" fill="#fff"/>
        <path id="Path_19" data-name="Path 19" d="M728.1,455.137a2.859,2.859,0,0,0-3.961,0,2.822,2.822,0,0,0,.008,3.968,2.823,2.823,0,0,0,3.946,0,2.84,2.84,0,0,0,.008-3.968Zm-.391,3.6a2.265,2.265,0,1,1-.007-3.22,2.193,2.193,0,0,1,.651,1.615A2.169,2.169,0,0,1,727.713,458.74Z" transform="translate(-566.623 -454.34)" fill="#fff"/>
      </g>
      <text id="ONLINE_DENTAL_AUCTIONS" data-name="ONLINE DENTAL AUCTIONS" transform="translate(27.704 39.085)" fill="#fff" font-size="8" font-family="SegoeUI, Segoe UI" letter-spacing="0.1em"><tspan x="0" y="0">ONLINE DENTAL AUCTIONS</tspan></text>
    </g>
  </g>
</svg>
