<svg xmlns="http://www.w3.org/2000/svg" width="26.6" height="26.6" viewBox="0 0 26.6 26.6">
  <g id="iconfinder_3669339_face_ic_icon" opacity="0.28">
    <path id="Path_138" data-name="Path 138" d="M11.758,14.806a1.385,1.385,0,1,0,1.385,1.385A1.386,1.386,0,0,0,11.758,14.806Zm6.65,0a1.385,1.385,0,1,0,1.385,1.385A1.386,1.386,0,0,0,18.408,14.806ZM15.083,4A11.083,11.083,0,1,0,26.167,15.083,11.08,11.08,0,0,0,15.083,4Zm0,19.95a8.826,8.826,0,0,1-8.811-9.814,11.114,11.114,0,0,0,5.774-5.952,11.068,11.068,0,0,0,9.038,4.683,10.854,10.854,0,0,0,2.494-.294,8.762,8.762,0,0,1,.371,2.51A8.878,8.878,0,0,1,15.083,23.95Z" transform="translate(-1.783 -1.783)" fill="#70587a"/>
    <path id="Path_139" data-name="Path 139" d="M0,0H26.6V26.6H0Z" fill="none"/>
  </g>
</svg>
