<svg xmlns="http://www.w3.org/2000/svg" width="87.302" height="87.954" viewBox="0 0 87.302 87.954">
  <g id="Group_53" data-name="Group 53" transform="translate(-168 -3355)">
    <g id="Group_4" data-name="Group 4" transform="translate(168 3355)">
      <path id="Path_8" data-name="Path 8" d="M362.237,462.27a59.218,59.218,0,0,1-20.888.643,58.558,58.558,0,0,1-18.939-11.154l10.455-6.392A19.306,19.306,0,0,1,362.237,462.27Z" transform="translate(-274.943 -442.495)" fill="#fff"/>
      <path id="Path_9" data-name="Path 9" d="M338.358,463.548a58.574,58.574,0,0,1-32.661-9.923c-2.8-1.879-5.608-3.741-8.484-5.5l-4.519-2.761a19.3,19.3,0,0,0-29.312,17.973c2.6,32.777,12.369,52.259,21.63,63.6a9.537,9.537,0,0,0,16.911-6.05V498.273H291.332a2.17,2.17,0,0,1-2.171-2.17V479.782a2.17,2.17,0,0,1,2.171-2.17h31.252a2.17,2.17,0,0,1,2.171,2.17V496.1a2.17,2.17,0,0,1-2.171,2.17H311.993v22.621a9.539,9.539,0,0,0,16.943,6.011c8.968-10.993,18.4-29.627,21.343-60.582q.14-1.475.26-2.983c.027-.361.048-.715.059-1.069A58.966,58.966,0,0,1,338.358,463.548Zm-50.673,34.291a2.17,2.17,0,1,1-4.34,0V478.046a2.17,2.17,0,1,1,4.34,0Zm42.886,0a2.17,2.17,0,1,1-4.34,0V478.046a2.17,2.17,0,1,1,4.34,0Z" transform="translate(-263.318 -442.495)" fill="#fff"/>
    </g>
  </g>
</svg>
