<svg xmlns="http://www.w3.org/2000/svg" xmlns:xlink="http://www.w3.org/1999/xlink" width="157" height="33.209" viewBox="0 0 157 33.209">
  <defs>
    <linearGradient id="linear-gradient" x1="0.213" y1="2.41" x2="0.948" y2="-1.995" gradientUnits="objectBoundingBox">
      <stop offset="0" stop-color="#ec4115"/>
      <stop offset="1" stop-color="#9d0b7c"/>
    </linearGradient>
    <linearGradient id="linear-gradient-2" x1="0.5" y1="0.988" x2="0.5" y2="0.039" xlink:href="#linear-gradient"/>
    <linearGradient id="linear-gradient-3" x1="-2.173" y1="0.465" x2="6.576" y2="0.58" xlink:href="#linear-gradient"/>
    <linearGradient id="linear-gradient-4" x1="-17.781" y1="0.405" x2="-1.508" y2="0.489" xlink:href="#linear-gradient"/>
    <linearGradient id="linear-gradient-5" x1="-7.611" y1="0.401" x2="1.746" y2="0.515" xlink:href="#linear-gradient"/>
    <linearGradient id="linear-gradient-6" x1="-8.679" y1="0.385" x2="0.45" y2="0.502" xlink:href="#linear-gradient"/>
    <linearGradient id="linear-gradient-7" x1="-6.168" y1="0.436" x2="2.963" y2="0.52" xlink:href="#linear-gradient"/>
    <linearGradient id="linear-gradient-8" x1="-0.34" y1="0.489" x2="5.946" y2="0.574" xlink:href="#linear-gradient"/>
    <linearGradient id="linear-gradient-9" x1="-3.639" y1="0.446" x2="5.54" y2="0.566" xlink:href="#linear-gradient"/>
    <linearGradient id="linear-gradient-10" x1="-4.619" y1="0.432" x2="4.131" y2="0.548" xlink:href="#linear-gradient"/>
    <linearGradient id="linear-gradient-11" x1="-54.439" y1="-0.361" x2="-7.745" y2="0.37" xlink:href="#linear-gradient"/>
    <linearGradient id="linear-gradient-12" x1="-29.432" y1="-0.032" x2="-3.997" y2="0.42" xlink:href="#linear-gradient"/>
  </defs>
  <g id="Group_239" data-name="Group 239" transform="translate(-98 -24.791)">
    <g id="Group_4" data-name="Group 4" transform="translate(98 24.791)">
      <path id="Path_8" data-name="Path 8" d="M337.09,449.784a21.825,21.825,0,0,1-7.7.237,21.583,21.583,0,0,1-6.98-4.111l3.854-2.356A7.116,7.116,0,0,1,337.09,449.784Z" transform="translate(-304.916 -442.495)" fill="url(#linear-gradient)"/>
      <path id="Path_9" data-name="Path 9" d="M290.976,450.255a21.589,21.589,0,0,1-12.038-3.657c-1.031-.692-2.067-1.379-3.127-2.027l-1.666-1.018a7.114,7.114,0,0,0-10.8,6.624c.959,12.081,4.559,19.261,7.972,23.44a3.515,3.515,0,0,0,6.233-2.23v-8.335h-3.9a.8.8,0,0,1-.8-.8v-6.015a.8.8,0,0,1,.8-.8h11.519a.8.8,0,0,1,.8.8v6.015a.8.8,0,0,1-.8.8h-3.9v8.337a3.516,3.516,0,0,0,6.245,2.215c3.305-4.052,6.783-10.92,7.866-22.329q.051-.544.1-1.1c.01-.133.018-.263.022-.394A21.734,21.734,0,0,1,290.976,450.255ZM272.3,462.894a.8.8,0,1,1-1.6,0v-7.3a.8.8,0,1,1,1.6,0Zm15.807,0a.8.8,0,1,1-1.6,0v-7.3a.8.8,0,1,1,1.6,0Z" transform="translate(-263.318 -442.495)" fill="url(#linear-gradient-2)"/>
    </g>
    <g id="Group_6" data-name="Group 6" transform="translate(138.783 28.007)">
      <g id="Group_5" data-name="Group 5" transform="translate(0 -1.783)">
        <path id="Path_10" data-name="Path 10" d="M451.715,476.414a3.276,3.276,0,0,0-.228-1.035c-.111-.256-.253-.551-.425-.893a2.159,2.159,0,0,0-.708-.822,8.727,8.727,0,0,0-1.047-.607,4.755,4.755,0,0,0-1.459-.425,13.182,13.182,0,0,0-1.94-.129l-.256,2.155q3.03,0,3.03,1.814a6.193,6.193,0,0,0-1.5-.582,10.51,10.51,0,0,0-2.155-.3,1.6,1.6,0,0,0-.311-.028,3.807,3.807,0,0,0-1.869.453q-1.958.965-1.955,3.769v2.75q.226,4.106,4.874,4.618a13.279,13.279,0,0,0,1.33.055q1.755,0,4.7-.283v-8.443c0-.453-.006-.8-.015-1.05S451.752,476.848,451.715,476.414Zm-3.033,7.762a8.939,8.939,0,0,1-1.641.172q-3.007,0-3.005-2.608v-1.558a1.281,1.281,0,0,1,.567-1.192,1.8,1.8,0,0,1,.908-.225,3.715,3.715,0,0,1,.453.028,8.549,8.549,0,0,1,1.546.413,5.475,5.475,0,0,1,1.173.579Z" transform="translate(-422.391 -466.911)" fill="url(#linear-gradient-3)"/>
        <path id="Path_11" data-name="Path 11" d="M708.047,463.49l.68-2.919h-2.691v-5.638h-3.174v16.091q0,4.027,4.308,4.11l.936-2.494a2.952,2.952,0,0,1-1.53-.326,1.382,1.382,0,0,1-.539-1.29V463.49Z" transform="translate(-603.7 -454.751)" fill="url(#linear-gradient-4)"/>
        <path id="Path_12" data-name="Path 12" d="M621.3,472.414a5.467,5.467,0,0,0-3.781,1.275,4.535,4.535,0,0,0-1.432,3.572v5.807a3.833,3.833,0,0,0,1.3,3.174,5.244,5.244,0,0,0,3.288.961h.225a9.217,9.217,0,0,0,4.677-1.33l-1.133-2.691a8.574,8.574,0,0,1-3.513,1.133,2.869,2.869,0,0,1-.4-.028,1.448,1.448,0,0,1-1.3-1.644v-.794l7.054-.366v-4.307a4.612,4.612,0,0,0-1.318-3.5A5.093,5.093,0,0,0,621.3,472.414Zm1.841,6.318-3.907.256v-1.7a1.889,1.889,0,0,1,.48-1.247,1.935,1.935,0,0,1,1.558-.567,2,2,0,0,1,1.333.453,1.61,1.61,0,0,1,.536,1.3Z" transform="translate(-543.647 -466.849)" fill="url(#linear-gradient-5)"/>
        <path id="Path_13" data-name="Path 13" d="M666.74,472.953a5.786,5.786,0,0,0-2.466-.539,7.956,7.956,0,0,0-2.463.425l-.37-.169h-2.75v14.194h3.091V475.927a4.455,4.455,0,0,1,1.924-.511,2.441,2.441,0,0,1,1.105.256,2.317,2.317,0,0,1,1.219,2.266v8.926h3.116v-9.8A4.107,4.107,0,0,0,666.74,472.953Z" transform="translate(-573.13 -466.849)" fill="url(#linear-gradient-6)"/>
        <path id="Path_14" data-name="Path 14" d="M580.857,460.655a5.27,5.27,0,0,0-1.247-.283,4.749,4.749,0,0,0-.764-.055c-.323,0-.671.018-1.05.055a6,6,0,0,0-1.9.511,4.08,4.08,0,0,0-2.408,4.08v5.354a4.049,4.049,0,0,0,2.208,3.938,8.137,8.137,0,0,0,3.741.85,32.524,32.524,0,0,0,4.5-.339V454.934h-3.088Zm0,11.361a6.1,6.1,0,0,1-1.472.2,4.263,4.263,0,0,1-1.5-.256c-.868-.32-1.3-.8-1.3-1.444V466.1a3.007,3.007,0,0,1,.409-1.656,1.915,1.915,0,0,1,1.062-.837,3.933,3.933,0,0,1,.936-.111,3.712,3.712,0,0,1,.453.028,4.158,4.158,0,0,1,1.416.425Z" transform="translate(-514.163 -454.751)" fill="url(#linear-gradient-7)"/>
        <path id="Path_15" data-name="Path 15" d="M388.367,468.051l-4.449-13.117H380.8v19.832h3.116V464.313l3.261,10.453h2.38l3.313-10.484v10.484h3.116V454.934h-3.116Z" transform="translate(-380.802 -454.751)" fill="url(#linear-gradient-8)"/>
        <path id="Path_16" data-name="Path 16" d="M496.927,476.077v-2.833h-9.862v2.947h5.668l-5.921,8.3v2.947h10.4v-2.947h-6.235Z" transform="translate(-454.172 -467.424)" fill="url(#linear-gradient-9)"/>
        <path id="Path_17" data-name="Path 17" d="M538.395,476.414a3.368,3.368,0,0,0-.225-1.035c-.114-.256-.256-.551-.425-.893a2.186,2.186,0,0,0-.708-.822,9.029,9.029,0,0,0-1.05-.607,4.754,4.754,0,0,0-1.459-.425,13.181,13.181,0,0,0-1.94-.129l-.256,2.155q3.03,0,3.033,1.814a6.274,6.274,0,0,0-1.5-.582,10.51,10.51,0,0,0-2.152-.3,1.651,1.651,0,0,0-.314-.028,3.807,3.807,0,0,0-1.869.453q-1.954.965-1.955,3.769v2.75q.226,4.106,4.874,4.618a13.28,13.28,0,0,0,1.33.055q1.76,0,4.7-.283v-8.443c0-.453-.006-.8-.015-1.05S538.432,476.848,538.395,476.414Zm-3.03,7.762a9,9,0,0,1-1.644.172q-3,0-3.005-2.608v-1.558a1.277,1.277,0,0,1,.57-1.192,1.787,1.787,0,0,1,.905-.225,3.716,3.716,0,0,1,.453.028,8.55,8.55,0,0,1,1.546.413,5.581,5.581,0,0,1,1.176.579Z" transform="translate(-482.382 -466.911)" fill="url(#linear-gradient-10)"/>
        <path id="Path_18" data-name="Path 18" d="M727.5,458.492a.678.678,0,0,1-.4.12.615.615,0,0,1-.514-.226.99.99,0,0,1-.007-1.122.611.611,0,0,1,.516-.22.672.672,0,0,1,.389.115.477.477,0,0,1,.208.286h.381a.883.883,0,0,0-.336-.561,1.013,1.013,0,0,0-.641-.215.964.964,0,0,0-.777.338,1.246,1.246,0,0,0-.285.832,1.191,1.191,0,0,0,.288.819.993.993,0,0,0,.784.326.963.963,0,0,0,.621-.218,1,1,0,0,0,.351-.579h-.386A.42.42,0,0,1,727.5,458.492Z" transform="translate(-619.737 -455.951)" fill="url(#linear-gradient-11)"/>
        <path id="Path_19" data-name="Path 19" d="M726.544,454.876a1.924,1.924,0,0,0-2.666,0,1.9,1.9,0,0,0,.005,2.67,1.9,1.9,0,0,0,2.655,0,1.911,1.911,0,0,0,.005-2.67Zm-.263,2.425a1.524,1.524,0,1,1,0-2.167,1.476,1.476,0,0,1,.438,1.087A1.459,1.459,0,0,1,726.28,457.3Z" transform="translate(-617.868 -454.34)" fill="url(#linear-gradient-12)"/>
      </g>
      <text id="ONLINE_DENTAL_AUCTIONS" data-name="ONLINE DENTAL AUCTIONS" transform="translate(0.217 27.993)" fill="#1a1818" font-size="8" font-family="SegoeUI, Segoe UI" letter-spacing="0.1em"><tspan x="0" y="0">ONLINE DENTAL AUCTIONS</tspan></text>
    </g>
  </g>
</svg>
