<svg xmlns="http://www.w3.org/2000/svg" width="17.763" height="25.099" viewBox="0 0 17.763 25.099">
  <path id="password" d="M17.987,10.457H7.329V7.529c0-2.2,1.332-4.183,3.2-4.392,2.132-.209,3.908,1.778,3.908,4.183h0a.922.922,0,0,0,.888,1.046h.888A.922.922,0,0,0,17.1,7.32h0C17.1,3.346,14.434.1,11.059,0,7.6-.1,4.664,3.242,4.664,7.32v3.137H3.776A1.959,1.959,0,0,0,2,12.548v7.32C2,22.8,3.954,25.1,6.441,25.1h8.882c2.487,0,4.441-2.3,4.441-5.228v-7.32A1.959,1.959,0,0,0,17.987,10.457ZM11.77,18.509v1.359a1.051,1.051,0,0,1-.888,1.046,1.051,1.051,0,0,1-.888-1.046V18.509a2.1,2.1,0,0,1-.888-1.778,1.959,1.959,0,0,1,1.776-2.091,1.959,1.959,0,0,1,1.776,2.091A2.1,2.1,0,0,1,11.77,18.509Z" transform="translate(-2 0.002)" fill="#351145" opacity="0.28"/>
</svg>
