<svg xmlns="http://www.w3.org/2000/svg" width="18.333" height="22.002" viewBox="0 0 18.333 22.002">
  <g id="icons" transform="translate(-2 0.002)">
    <path id="password" d="M18.5,9.167H7.5V6.6a3.789,3.789,0,0,1,3.3-3.85,3.714,3.714,0,0,1,4.033,3.667h0a.866.866,0,0,0,.917.917h.917a.866.866,0,0,0,.917-.917h0A6.4,6.4,0,0,0,11.35,0a6.476,6.476,0,0,0-6.6,6.417v2.75H3.833A1.839,1.839,0,0,0,2,11v6.417A4.539,4.539,0,0,0,6.583,22H15.75a4.539,4.539,0,0,0,4.583-4.583V11A1.839,1.839,0,0,0,18.5,9.167Zm-6.417,7.058v1.192a.986.986,0,0,1-.917.917.986.986,0,0,1-.917-.917V16.225a1.774,1.774,0,0,1-.917-1.558,1.833,1.833,0,0,1,3.667,0A1.774,1.774,0,0,1,12.083,16.225Z" transform="translate(0 0)" fill="#9783a0"/>
  </g>
</svg>
