<svg xmlns="http://www.w3.org/2000/svg" width="20.416" height="20.4" viewBox="0 0 20.416 20.4">
  <g id="iconfinder_216352_phone_icon" transform="translate(-2.5 -2.514)" opacity="0.28">
    <path id="Path_135" data-name="Path 135" d="M13.547,7.987l4.445-4.444-.525-.52a1.841,1.841,0,0,0-2.541,0l-1.9,1.9a1.8,1.8,0,0,0,0,2.541Z" transform="translate(1.978)" fill="#351145"/>
    <path id="Path_136" data-name="Path 136" d="M7.466,13.023a1.841,1.841,0,0,0-2.541,0l-1.9,1.9a1.8,1.8,0,0,0,0,2.543l.523.517,4.436-4.436Z" transform="translate(0 1.978)" fill="#351145"/>
    <path id="Path_137" data-name="Path 137" d="M21.218,4.8l-.424-.424L16.352,8.817l.779.777a.6.6,0,0,1,0,.848L10.44,17.133a.614.614,0,0,1-.847,0l-.779-.779L4.38,20.8l.424.424a5.129,5.129,0,0,0,3.661,1.324c1.936,0,5.1-.853,9.163-4.917C25.741,9.514,21.411,4.992,21.218,4.8Z" transform="translate(0.372 0.368)" fill="#351145"/>
  </g>
</svg>
